<svg xmlns="http://www.w3.org/2000/svg" xmlns:xlink="http://www.w3.org/1999/xlink" viewBox="0 0 1444.09 1766.23"><defs><style>.cls-1{isolation:isolate;}.cls-2{opacity:0.5;mix-blend-mode:multiply;fill:url(#radial-gradient);}.cls-3{fill:#4baa47;}.cls-4{fill:#fff;}.cls-5{fill:#a2cb94;}.cls-6{fill:#010101;}.cls-7{fill:#ffe504;}.cls-8{fill:#c4dcbc;}.cls-9{fill:#82be72;}</style><radialGradient id="radial-gradient" cx="480.45" cy="41581.28" r="2688.45" gradientTransform="translate(647.03 406.13) scale(0.16 0.03)" gradientUnits="userSpaceOnUse"><stop offset="0" stop-color="#231f20"/><stop offset="1" stop-color="#737476" stop-opacity="0"/></radialGradient></defs><title>tshwane-locator-larger1</title><g class="cls-1"><g id="Layer_1" data-name="Layer 1"><ellipse class="cls-2" cx="723.81" cy="1670.2" rx="429.59" ry="81.73"/><path class="cls-3" d="M1318.45,930h0a636.29,636.29,0,0,0,49.43-246.6C1367.85,330.82,1082,45,729.4,45S91,330.82,91,683.42a635.37,635.37,0,0,0,107,353.71C291.7,1216.56,596,1682.3,729.41,1682.3c155.58,0,460.48-492.13,558.13-688.93a635.32,635.32,0,0,0,30.74-63C1318.34,930.24,1318.45,930,1318.45,930Z"/><path class="cls-4" d="M1257.88,683.42c0,291.83-236.63,528.44-528.48,528.44S201,975.25,201,683.42,437.54,154.94,729.4,154.94,1257.88,391.55,1257.88,683.42Z"/><path class="cls-5" d="M203.19,368.6S25,641.8,171.61,930C171.61,930,67.82,669.31,203.19,368.6Z"/><path class="cls-3" d="M526.66,456.05c-.31.36-89.65,320.07,438.48,291.41-5.58.33-480.46,115.25-523.14-294,0,0,45.34,24.21,84.66,2.55"/><path class="cls-6" d="M693.13,697.12V592.34l1.1-.41,2.08,1.08,2-.9c-.15,5.64-.45,23.14.06,44.25.39,17.35.84,45.54,1,62.07,4.23.88,8.34,1.69,12.45,2.43,0-17.07-.09-46.94-.41-65.35-.34-16.72-.91-32.2-1.45-42.21a2.81,2.81,0,0,0,1.54-2.6v-.6a3.32,3.32,0,0,0,2.7-3.3,3.37,3.37,0,0,0-3.37-3.4h-.17l-1.53.24,6.42-7.72c-.15,7.32-.42,25,.09,45.91.53,23,1.38,66.22,1.63,80,4.47.81,8.91,1.56,13.26,2.19-.06-14.35-.36-59-.81-83.16-.48-22-1.23-38.58-1.56-45.33a3.17,3.17,0,0,0,1.71-2.79l-.09-.63a3.57,3.57,0,0,0,2.94-3.54,3.61,3.61,0,0,0-3.63-3.64h-.15c-.76,0-3.31.7-4.92.73l4.59-5.53a3.66,3.66,0,0,0,3.39,2.41,3.5,3.5,0,0,0,2.65-1.26c-.15,7.8-.61,32,.08,61.21s1.41,69,1.62,82.39c5.88.85,11.56,1.6,17.14,2.21,0-14.68,0-55.66-.62-85.8-.58-28.29-1.56-49.71-2-58.4a3.9,3.9,0,0,0,2.22-3.57l-.09-.81a4.64,4.64,0,0,0,3.75-4.56l13.3,1.41-.31.42c-1,1.29-1.46,1.38-1.61,1.32h0a3.94,3.94,0,0,0,0,7.86,3.55,3.55,0,0,0,2.67-1.22c-.13,7.81-.58,32,.12,61.2.69,28.59,1.34,69,1.59,83.91,5.86.49,11.59.79,17.14,1,0-16.93-.06-57.3-.61-86.16-.62-28.28-1.55-49.66-2-58.38a4,4,0,0,0,2.19-3.58l0-.78a4.77,4.77,0,0,0,3.53-3.19l13.15,1.46c-.93,1.16-1.44,1.22-1.56,1.22h0a3.8,3.8,0,0,0-3.65,3.94,3.76,3.76,0,0,0,3.65,3.89,3.57,3.57,0,0,0,2.71-1.25c-.17,7.86-.67,32,.09,61.25.64,27.76,1.23,66.18,1.57,81.92,5.94,0,11.67-.19,17.17-.4,0-18-.12-55.38-.63-82.73-.61-28.28-1.58-49.69-2-58.42a3.89,3.89,0,0,0,2.22-3.61l-.09-.74a4.7,4.7,0,0,0,3.36-2.65l13.34,1.44c-.9,1.21-1.41,1.3-1.62,1.3v0a3.91,3.91,0,0,0,0,7.8A3.5,3.5,0,0,0,843,571c-.16,7.87-.57,32,.12,61.24.75,32.79,1.55,70.37,1.7,76.26,6-.64,11.66-1.39,17-2.19,0-13.27,0-46.27-.63-75.27-.54-28.31-1.53-49.72-2-58.41a3.9,3.9,0,0,0,2.25-3.61l-.09-.79a4.63,4.63,0,0,0,3.33-2.6l13.12,1.4-1.29.91h0a3.92,3.92,0,0,0,0,7.83,3.63,3.63,0,0,0,2.7-1.25c-.21,7.86-.62,32,.06,61.23.54,25,1.21,52.6,1.48,67,6.32-1.38,12-2.91,17.25-4.41,0-16.24-.21-41.25-.63-63.8-.56-28.28-1.53-49.66-2-58.42a3.92,3.92,0,0,0,2.25-3.57l0-.81a4.77,4.77,0,0,0,3.15-2.28l13.15,1.38-1.24.84h0a3.93,3.93,0,0,0,0,7.84,3.68,3.68,0,0,0,2.71-1.24c-.18,7.81-.61,32.07.09,61.21.42,18,.81,37.47,1.14,52.3A110.49,110.49,0,0,0,934,683.1c-.16-13.85-.26-29.85-.59-44.79-.54-28.28-1.56-49.68-2-58.42a3.91,3.91,0,0,0,2.22-3.59l-.06-.79a4.66,4.66,0,0,0,3.75-4.57,4.72,4.72,0,0,0-1-2.85l5.46-3.48L728.24,541l-41.09,49.9V695.79c2,.46,4,.91,6,1.33"/><path class="cls-4" d="M701.45,591.42s0,21.65.12,39.51.69,68.3.69,68.3l2.63.45s-.71-79.23-.71-87.78-.31-20.48-.31-20.48c-1.52,1.54-2.42,0-2.42,0"/><polygon class="cls-6" points="595.65 522.64 595.65 559.51 598.35 559.51 598.35 522.11 595.65 522.64"/><polygon class="cls-6" points="605.97 561.18 617.32 562.14 617.32 523.89 609.63 525.25 605.97 523.24 605.97 561.18"/><polygon class="cls-6" points="607.35 486.36 603.53 485.22 603.53 498.64 613.32 503.32 613.32 485.34 607.35 477.89 607.35 486.36"/><path class="cls-6" d="M630.45,374.8a3.74,3.74,0,0,0,1.5-3.09,3.9,3.9,0,0,0-4-3.94,4,4,0,0,0-4.08,3.94,3.8,3.8,0,0,0,1.52,3.06l-.35.75c-.4,1.26,1.32,1.26,1.25,1.4a26.47,26.47,0,0,0-.38,5.09c.09,2.39.87,1.59,1.2,2.75s-1.2,4.05-1,5.2,1.81.5,1.81.3a51.1,51.1,0,0,1,2.49-4.75c.75-1.11-.12-3.42-.73-4.95a11.22,11.22,0,0,1-.6-3.19l2.65-1.08Z"/><path class="cls-6" d="M675.34,513.64l-.69-.36c-.06,0-9-4.55-25.87-7.44s-35,1.56-35.19,1.65l-1,.24-7.35-6.54-22.1,6.54-4.5-3.48,27.62-7.62,7.44,6.59c4.26-1,20.29-4.05,35.81-1.4,15,2.58,23.84,6.34,26.36,7.5l16.76-4.2,1,4Z"/><path class="cls-6" d="M675.09,527.82l-.62-.21c-.22-.06-20.2-6.21-35.64-7.77A94.84,94.84,0,0,0,610,521.4l-.81.17-6.28-4.08-15.7,3.91-.06-4,16.46-4.31,6.33,4.1a98.58,98.58,0,0,1,29.3-1.47c14.5,1.47,32.21,6.7,35.78,7.78l10.54-3.36,4.59,3.3-2.33,3.36-3-2.13Z"/><polygon class="cls-6" points="637.15 563.09 653.51 564.69 653.51 525.9 637.15 522.96 637.15 563.09"/><polygon class="cls-6" points="622.7 522.37 622.7 562.25 629.75 562.78 629.75 522.37 622.7 522.37"/><polygon class="cls-6" points="660.87 553.8 664.69 549.18 664.69 528.4 660.87 527.32 660.87 553.8"/><polygon class="cls-6" points="639.58 497.55 649.16 498.3 649.16 489.09 639.58 488.54 639.58 497.55"/><polygon class="cls-6" points="675.6 531.13 672.32 530.86 672.05 539.36 680.27 529.75 675.6 531.13"/><path class="cls-6" d="M582.29,487.19l1-4.82c.93-.58,25.5-13.55,56.56-10.34,24.74,2.55,41.19,10.66,41.63,10.93l.4,4.32c-.09,0-21.43-8.8-42.56-11.2-29.55-4-56.83,11-57.05,11.11"/><rect class="cls-6" x="623.98" y="409.64" width="3.21" height="13.62"/><rect class="cls-6" x="629.81" y="409.64" width="3.21" height="13.62"/><path class="cls-6" d="M694.52,506.5l-.63-6.07-5.76-8-3.85-2.58s.76-4.82-2.48-7l-.22-.5c-.23-8.32-6.54-23.43-16.27-33.63-7.95-8.29-19.78-13.69-23.56-15.61v-3.84L639.38,426l.27-13.91a9.16,9.16,0,0,0,1.72-8.28,12.12,12.12,0,0,0-5.11-6.35l-.22-1.6c-.18-2-1.95-5.83-7.76-5.83-5.66,0-7.7,3.91-8,6l0,2.8c-.6.63-1.63,1.86-3.43,4-3,3.61-1.11,7.53.69,9.62l-.27,14.28-1.5,2.7V434c-3.15,1.45-11.67,5.89-21.91,16.13-9.88,9.87-12.79,24.05-14.39,31.61-.33,1.56-.66,3.26-.83,3.76A9.07,9.07,0,0,0,577,491c-.45.75-1.27,2.25-2.77,5.31-2.31,4.6-.66,7.84.42,9.23l.25,8.55a83.13,83.13,0,0,0-5.57,6.51c-3.41,4.45-2.54,9.7-1.64,12.59l-6.4,2.16v8.25l.19.2,4.71,2.92v11.77h4.13v-14l-5.48-3.54-.12-2.73,8.52-2.56-1.05-2.13s-3-6.06.34-10.41a56.93,56.93,0,0,1,5.75-6.58l.79-.66,4.71-3.52-.09-2.1-4.74,2.35-.27-8.77-.66-.63s-1.78-1.67-.15-5c2.25-4.5,2.88-5.5,2.88-5.5l.42-.6,0-.75.73-3.27c.65-.81.93-2,1.64-5.4,1.45-7.21,4.25-20.64,13.25-29.57,12.06-12.1,21.67-15.74,21.73-15.76l1.38-.51v-6.28l1.51-2.72.32-17-.69-.6c-.12-.15-2.75-2.61-1-4.71,2.85-3.43,3.78-4.39,3.78-4.39l.58-.63v-3.93c.09-.45.71-2.35,3.94-2.35s3.61,1.59,3.68,2.11l.43,3.8,1,.49c0,.06,3.12,1.53,4,4.47a5.19,5.19,0,0,1-1.33,4.87l-.56.6-.3,16.78,2.37,3.37v5.52l1.5.44c.15,0,14.76,5.76,23,14.8C677.5,468.14,677,482.75,677,482.88l-2.22-.13,2.87,2.66s4,1.55,2.73,6.8l3.33,2,6.26,8.26.62,5.91,5.41,5.41,2.87-2.91Z"/><path class="cls-6" d="M604.76,471.8l-5.94,1.66c.08-.52.84-13.88,9.79-24.54a43.66,43.66,0,0,1,14-10.64H626a55.72,55.72,0,0,0-14.19,14.22,43.6,43.6,0,0,0-7.09,19.3"/><path class="cls-6" d="M652.73,471.8l5.95,1.66c-.09-.46-.79-13.85-9.8-24.51a43.61,43.61,0,0,0-14-10.67h-3.45a56.55,56.55,0,0,1,14.17,14.19,42.9,42.9,0,0,1,7.11,19.33"/><polygon class="cls-6" points="713.37 478.17 709.67 477.7 702.56 485.92 702.46 489.79 709.98 481.2 713.57 481.81 715.55 479.5 749.46 484.12 749.46 480.79 714.85 475.72 713.37 478.17"/><polygon class="cls-6" points="714.43 484.42 710.55 483.66 696.74 500.39 696.74 504.53 697.94 505.21 705.86 494.53 755.25 491.29 755.7 489.97 749.46 489.19 749.46 486.19 716.53 481.75 714.43 484.42"/><polygon class="cls-6" points="944.77 555.02 726.88 531.58 657.12 613.41 657.12 619.39 728.14 537.28 945.04 559.94 944.77 557.64 944.77 555.02"/><polygon class="cls-6" points="667.98 621.94 667.98 648.18 676.75 642.02 676.75 612.88 667.98 621.94"/><path class="cls-6" d="M807,490.67l-99.85,6.69-51.55,69.35L563.34,560a45,45,0,0,0,5,14.9l86.67,8.31,59.66-76.53,242.53,28.74.18,1.37-3.33,3.34v3.85l-2,1.25L721.88,518.52l-70,84.57-76.46-6.42c1.44,3.15,3,6.4,4.62,9.66l72.38,6,71.67-87.74,223.59,25.88v.15l-3.61,2.82v4.32l-1.81,1.8.52,4.14,40.24-29v-4.11Z"/><path class="cls-4" d="M738.25,559.21s.08,29,.23,53,1.65,93.39,1.65,93.39l5.86.75s-1.56-108.16-1.56-119.69-.76-27.46-.9-27.46c-3.27,2-5.28,0-5.28,0"/><path class="cls-4" d="M774,562.57s.12,29,.3,52.81,1.6,93.87,1.6,93.87l5.91.39S780.21,601.39,780.21,590s-.75-27.38-.84-27.38c-3.26,2-5.34,0-5.34,0"/><path class="cls-4" d="M810.62,566.65s.06,29.11.24,53.14,1.66,90.45,1.66,90.45l5.88-.06s-1.68-104.48-1.68-116-.64-27.55-.64-27.55c-3.48,2.13-5.46,0-5.46,0"/><path class="cls-4" d="M846.41,567.73s.09,28.27.25,51.54,1.64,88.86,1.64,88.86l5.88-.63s-1.65-101.89-1.65-113-.69-26.72-.81-26.72c-3.3,2-5.31,0-5.31,0"/><path class="cls-4" d="M882.34,574s.12,26,.27,47.42,1.6,80.61,1.6,80.61l5.88-1.35s-1.56-91.83-1.56-102.1-.76-24.58-.76-24.58c-3.39,1.79-5.43,0-5.43,0"/><path class="cls-4" d="M926.08,687.58c-.45-32-1.08-75.78-1.08-83,0-11.64-.73-27.79-.87-27.79-3.27,2.1-5.28,0-5.28,0s.08,29.38.23,53.64c.09,13.21.54,39.15,1,60Z"/><path class="cls-4" d="M718.91,574.59s0,25.4.19,46.33,1,81.56,1,81.56l3.82.63s-1-94.47-1-104.53-.48-24-.48-24c-2.16,1.77-3.49,0-3.49,0"/><polygon class="cls-4" points="978.42 531.86 709.77 500.27 654.95 573.08 654.48 577.1 710.73 502.28 978.42 533.65 978.42 531.86"/><path class="cls-6" d="M578,541.49l-3.87.06c.05-.24.92-6,7.23-12.44,4.74-4.88,8.19-5.34,8.47-5.46l0,4.18a22.76,22.76,0,0,0-5.61,4.26c-5.38,5-6.13,8.65-6.19,9.4"/><polygon class="cls-6" points="586.06 534.42 586.06 559.79 589.33 560.07 589.33 532.51 586.06 534.42"/><polygon class="cls-6" points="579.22 545.59 579.22 558.95 580.9 558.95 580.9 542.35 579.22 545.59"/><path class="cls-7" d="M545.35,394c0,32.85-26.18,59.44-58.39,59.44S428.54,426.8,428.54,394s26.15-59.43,58.42-59.43,58.39,26.62,58.39,59.43"/><path class="cls-5" d="M948.17,756s-72,18.55-144.28,12.37c0,0,109.46,35.69,299.18,38.84,0,0-117.49-17.71-154.9-51.21"/><path class="cls-8" d="M666.44,706.91C525.76,618,557,477.16,556.65,477.3c-7,4.45-21.46,9.85-29.84,10-6.06,54.73,4.78,161.31,139.63,219.58"/><path class="cls-8" d="M787.47,770.34C648.57,763.82,548.72,711.77,484.9,619c121.76,250,513,190.44,513,190.44-102.93-10.75-159.61-22-210.47-39.13"/><path class="cls-6" d="M465,829.35a26.2,26.2,0,0,1-3.93,1.71,43.71,43.71,0,0,1-4.24,1.1c-1.47.28-2.73.49-3.93.63s-2.16.19-2.88.19a23.36,23.36,0,0,1-8.85-1.62,20.62,20.62,0,0,1-6.84-4.48,20.29,20.29,0,0,1-4.43-6.78,23.53,23.53,0,0,1-1.52-8.56,21.66,21.66,0,0,1,1.74-9,18.6,18.6,0,0,1,5-6.54,21.52,21.52,0,0,1,7.41-4,30.29,30.29,0,0,1,9.33-1.39,38.18,38.18,0,0,1,5.4.37c1.75.27,3.43.54,5.07.87l.46.3.27.47.09,1.3.06,1.62.12,1.8.09,1.69,0,1.34v.7l-1.71.18a7.09,7.09,0,0,0-1.29-3.61,8.22,8.22,0,0,0-2.64-2.42,10.5,10.5,0,0,0-3.49-1.33,15,15,0,0,0-3.78-.46,17,17,0,0,0-6.61,1.23,13,13,0,0,0-4.64,3.49,15.36,15.36,0,0,0-2.86,5.2,22.7,22.7,0,0,0-.92,6.56,24.63,24.63,0,0,0,1.16,7.73,17.16,17.16,0,0,0,3.39,6.15,15.65,15.65,0,0,0,5.68,4.08,19,19,0,0,0,7.93,1.54,22.36,22.36,0,0,0,5.28-.63,43.23,43.23,0,0,0,5.16-1.59Z"/><path class="cls-6" d="M467.87,792.15c1.26-.24,2.43-.41,3.54-.57s2.13-.32,3-.42l2.19-.18,1.08-.09,1.16,1.12v39l-.87,1-1.29.18-1.4.15-1.24.09h-.9l-.8-.87V797.13l-.19-1.58-.56-1-.91-.52-1.11-.08-1.54,0Z"/><path class="cls-6" d="M494.94,794.51a34,34,0,0,0-3.76.12,4.57,4.57,0,0,0-2.49.78,4.9,4.9,0,0,0-1.59,2.11,24.07,24.07,0,0,0-1.23,4.14l-1.73-.15v-.79l.06-1.5.08-2,.12-2,.15-1.82.18-1.36.57-.54c2.14,0,4.21,0,6.1.09s3.72,0,5.37,0h11.61c1.6,0,3.43,0,5.39,0s4.05-.06,6.15-.09l.56.54.09,1.36.07,1.82.12,2,.06,2,0,1.5.06.79-1.8.15a25.27,25.27,0,0,0-1.21-4.14,4.86,4.86,0,0,0-1.56-2.11,4.22,4.22,0,0,0-2.37-.78,33.57,33.57,0,0,0-3.78-.12h-4.44V831l-.88,1-1.28.17-1.42.15-1.23.1h-.87l-.84-.88v-37Z"/><path class="cls-6" d="M529.8,790.89l.87.33.69.9,9.91,17.7,8.43-17.14.46-.65.71-.4,1-.18,1.09-.09,1-.09h.69l.64.36-.06.33-.15.28-12.55,21V831l-.85,1-1.25.22-1.44.15-1.23.07-.9,0-.81-.89V813.79l-9.68-17.15a8.48,8.48,0,0,0-1.67-2.19l-1.86-.56-.63,0-.82.09-.24-1.89c1.06-.21,2.08-.39,3.06-.55l2.59-.35,2-.22Z"/><path class="cls-6" d="M598.16,790.61a21.67,21.67,0,0,1,8.13,1.41,17.46,17.46,0,0,1,6.25,4,17.93,17.93,0,0,1,3.93,6.47,24.93,24.93,0,0,1,1.41,8.64,25.41,25.41,0,0,1-1.58,9.36,17.85,17.85,0,0,1-4.39,6.82,18.4,18.4,0,0,1-6.94,4.2,25.6,25.6,0,0,1-9,1.5,21.32,21.32,0,0,1-8.12-1.5,17.6,17.6,0,0,1-6.28-4.08,19.23,19.23,0,0,1-3.93-6.57,28.19,28.19,0,0,1,.19-18,18.07,18.07,0,0,1,4.38-6.75,18.79,18.79,0,0,1,7-4.09,26.32,26.32,0,0,1,9-1.41m-1.74,2.95a11.55,11.55,0,0,0-5.86,1.38,12,12,0,0,0-4,3.69,16.85,16.85,0,0,0-2.31,5.38,28.27,28.27,0,0,0-.72,6.29,33.94,33.94,0,0,0,.78,7.21,21.65,21.65,0,0,0,2.48,6.31,14.81,14.81,0,0,0,4.45,4.53,12.47,12.47,0,0,0,6.54,1.72,11.42,11.42,0,0,0,5.92-1.46,12,12,0,0,0,4-3.83,16.65,16.65,0,0,0,2.25-5.44,26.11,26.11,0,0,0,.75-6.33,31.61,31.61,0,0,0-.81-7.18,19.87,19.87,0,0,0-2.49-6.21A13.63,13.63,0,0,0,603,795.2,12.35,12.35,0,0,0,596.42,793.56Z"/><path class="cls-6" d="M632.74,831l-.81,1-1.35.18-1.38.13-1.27.1-.83,0-.84-.89V797.69c0-1.2-.25-2-.81-2.35l-2-.53-1.44.06-.21-1.9,2.1-.36c.94-.14,1.89-.26,2.91-.45s2-.22,3-.3l2.22-.17h12.39l2.53,0c.84,0,1.78,0,2.86,0l.62.54.14,1.24.11,1.73,0,1.92,0,1.84.08,1.43,0,.73-1.78.18a19.12,19.12,0,0,0-1.23-3.84l-1.53-2a6,6,0,0,0-2.43-.72c-.91-.09-2.19-.13-3.72-.13h-5.9l-.82,0-.46.21-.18.35,0,.73v15.54c1.89-.09,3.66-.21,5.25-.29s2.85-.15,4-.18,2-.15,2.77-.15l1.23-.06,1,1,0,1.35-.15,1.51-14-.45Z"/><path class="cls-6" d="M447.57,863.45c-2.74,0-5,.06-6.76.17a8.45,8.45,0,0,0-4.4,1.45,8.88,8.88,0,0,0-3,3.87,40.43,40.43,0,0,0-2.19,7.41l-3.18-.33,0-1.4c0-.72.06-1.63.12-2.65s.14-2.22.2-3.45.13-2.49.21-3.69.18-2.28.24-3.27.16-1.87.28-2.44l1.14-1c3.79.06,7.44.18,11,.18s6.62.09,9.63.09h21c3,0,6.15-.06,9.69-.09s7.24-.12,11.05-.18l1,1c.08.57.14,1.39.21,2.44s.15,2.06.19,3.27.12,2.4.14,3.69.09,2.34.09,3.45.06,1.93.09,2.65l0,1.4-3.12.33a54.31,54.31,0,0,0-2.19-7.41,9,9,0,0,0-2.82-3.87,8.25,8.25,0,0,0-4.36-1.45q-2.56-.17-6.73-.17H467v65.8a1.6,1.6,0,0,1-1.49,1.77l-2.35.39-2.52.22-2.28.11-1.54,0c-1,0-1.49-.5-1.49-1.52v-66.8Z"/><path class="cls-6" d="M541.29,875.4a18.27,18.27,0,0,0-2-5.91,14,14,0,0,0-3.52-4.12A12.67,12.67,0,0,0,531,863a19,19,0,0,0-5.58-.79,23.25,23.25,0,0,0-5.68.72A14.32,14.32,0,0,0,515,865.2a11.77,11.77,0,0,0-3.31,4,13.13,13.13,0,0,0-1.2,5.86,9.8,9.8,0,0,0,1.39,5.15,15.52,15.52,0,0,0,3.89,3.76,40.06,40.06,0,0,0,5.56,2.89c2.13.77,4.29,1.62,6.54,2.49,2.55.92,5.07,2,7.63,3.06a31.25,31.25,0,0,1,6.71,4,18.7,18.7,0,0,1,4.84,5.77,17.17,17.17,0,0,1,1.86,8.34,22.65,22.65,0,0,1-1.17,7.65,19,19,0,0,1-3.41,5.8,20.08,20.08,0,0,1-5.08,4.17,30.55,30.55,0,0,1-6.25,2.73,39.5,39.5,0,0,1-7,1.46,61.7,61.7,0,0,1-7.12.44,71.49,71.49,0,0,1-8.41-.49,83.59,83.59,0,0,1-8.37-1.44l-.91-.5-.38-.87c-.1-.91-.19-2.2-.31-3.85s-.15-3.43-.21-5.19-.12-3.34-.15-4.72-.06-2.28-.06-2.55l3.18-.34a16.82,16.82,0,0,0,2,6.53,13.75,13.75,0,0,0,3.93,4.55,14.24,14.24,0,0,0,5.4,2.62,24.18,24.18,0,0,0,6.58.87,27.49,27.49,0,0,0,6.1-.69,16.52,16.52,0,0,0,5.27-2.37,11.76,11.76,0,0,0,3.7-4.09,12.47,12.47,0,0,0,1.38-6,8.6,8.6,0,0,0-1.44-5,13.47,13.47,0,0,0-3.9-3.67,30.18,30.18,0,0,0-5.56-2.85c-2-.84-4.23-1.71-6.42-2.55-2.53-1.08-5.07-2.1-7.57-3.25a28.06,28.06,0,0,1-6.78-4.2,17.06,17.06,0,0,1-6.7-14.43,20.53,20.53,0,0,1,2.4-10.33,19.64,19.64,0,0,1,6.43-6.61,27.22,27.22,0,0,1,8.92-3.57,47.51,47.51,0,0,1,10.24-1.05,60.24,60.24,0,0,1,7.52.54,69.7,69.7,0,0,1,7.7,1.38l.93.54.35.81c.12.9.18,2.16.27,3.7s.18,3.18.24,4.76.18,3.07.24,4.37,0,2.07,0,2.34Z"/><path class="cls-6" d="M612.28,860.1a1.62,1.62,0,0,1,1.47-1.74l2.33-.33,2.53-.18,2.31-.18,1.56-.06a1.35,1.35,0,0,1,1.47,1.55v70.11a1.63,1.63,0,0,1-1.47,1.77l-2.4.35-2.49.22-2.28.15h-1.56c-1,0-1.47-.52-1.47-1.54V894.5l-36.79.44v34.33a1.58,1.58,0,0,1-1.43,1.77l-2.41.35-2.48.22-2.32.15h-1.53a1.35,1.35,0,0,1-1.5-1.54v-62a11,11,0,0,0-.34-2.85l-1-1.77-1.59-.83-2-.25-2.76.18-.42-3.48c2.25-.39,4.41-.79,6.45-1.05s3.88-.51,5.43-.7,2.88-.23,4-.32,1.72-.15,2-.15a1.74,1.74,0,0,1,2,2v30.48h36.79Z"/><path class="cls-6" d="M724.76,860.25a3,3,0,0,1,2.08-1.89l1.85-.39,1.95-.25,1.74-.09,1.23,0,1.08.57-.29,1.23-25.79,71.06-.48.84-.6.3-1.48.09-1.8.19-1.82,0-1.36.07-.81-.2-.56-.82-14.81-45.82-16,45.3-.45.84-.57.3-1.44.09-1.87.19-1.8,0-1.4.07-.73-.2L660,931l-20.5-63.62c-.68-2-1.53-3.3-2.64-4a6.79,6.79,0,0,0-3.57-1l-1.35.09-1.38.18-.34-3.49c1.8-.32,3.64-.69,5.56-.93s3.51-.47,5.1-.69,2.89-.33,4-.44,1.83-.16,2-.16l1.47.6.83,1.62L667.75,917H668l13.81-41.43-5.11-15.86.06-1.2.9-.6a39.93,39.93,0,0,1,4.76-.69c1.67-.17,3.11-.27,4.19-.27l1.27.37.66,1.08,19.12,59.17h.24Z"/><path class="cls-6" d="M745.44,904.72l-9.66,26-1.2.78-2.56.19c-1,.06-2.06.06-3.3.06l-1-.61.06-.3L756.6,862l-1.28-3.6-.12-.69,1.17-1.18,2.37-.3,2.64-.27,2.31-.21,1.6,0a1.87,1.87,0,0,1,1.8,1.41l28.09,71.9.22.77-1.27,1.2-2.57.36-2.77.21-2.45.16h-1.66l-1.44-.91L773,904.27Zm2-5.34h23.64l-12-31.08Z"/><path class="cls-6" d="M814.53,855.92l1.08.41.86,1L860,914.79l-1.55-56.21,1-.8c.78-.12,1.75-.27,3-.37s2.49-.21,3.67-.21l1,1-1.53,61.08v11.48l-1,.78-2.53.18c-.94.09-1.88.09-2.9.09l-.84-.21-.64-.72L813.84,873l1.58,57.6-1,.83c-.77.1-1.79.22-3.12.28s-2.55.18-3.59.18l-1-1,1.55-65.31-5.17-7-.26-.65,1.16-1.14c.64-.12,1.52-.22,2.56-.37l3.16-.27c1.1,0,2.07-.11,2.93-.17Z"/><path class="cls-6" d="M897.15,921.25c0,1,.06,1.77.06,2.37l.51,1.3,1.38.59c.63.06,1.56.13,2.64.13h8.14c3.36,0,6.06-.1,8.13-.22a12.25,12.25,0,0,0,5.38-1.44,11,11,0,0,0,3.9-3.9,56.75,56.75,0,0,0,3.75-7.53l3.12.71a20.59,20.59,0,0,1-.27,2.21c-.17,1.22-.44,2.62-.72,4.26s-.65,3.24-1,4.91-.75,3.13-1.11,4.38a3.06,3.06,0,0,1-3.09,2.16c-1.56,0-3.42,0-5.55,0s-4.57-.07-7.17-.07-5.41,0-8.42,0-6.12,0-9.42,0H886.92l-1.18-.51-.33-1.06V869.19c0-2.12-.48-3.54-1.44-4.19a5.57,5.57,0,0,0-3.6-1.08l-2.68.2-.41-3.45,3.87-.63c1.68-.24,3.45-.51,5.25-.76s3.58-.44,5.28-.59,3-.27,4-.27h23c1.43,0,2.91,0,4.52,0s3.25,0,5.11-.08l1.1.9c.08.64.14,1.38.2,2.34s.08,2,.12,3.14.14,2.27.14,3.43.19,2.25.24,3.28,0,1.86,0,2.54l.06,1.33-3.15.33a44.06,44.06,0,0,0-2.16-6.91,8,8,0,0,0-2.83-3.57,9.3,9.3,0,0,0-4.32-1.35c-1.74-.12-4-.21-6.76-.21H899.85l-1.58.09-.82.28-.24.74-.06,1.29v25.37c3.42-.14,6.63-.33,9.43-.48s5.42-.24,7.5-.39,3.87-.15,5.13-.21,2.11-.13,2.4-.13c1.18,0,1.78.61,1.78,1.9l-.09,2.43c-.12.84-.16,1.74-.33,2.7l-25.82-.86Z"/><path class="cls-9" d="M934.92,687.31s-128.64,65.3-284.21,3.84c0,0,94.71,75.77,400,47.47,0,0-74.57-6.28-113.27-47.73Z"/><rect class="cls-6" x="435.64" y="955.98" width="2.45" height="25.43"/><path class="cls-6" d="M460.75,970.3v-2h11.34v13.15H470v-4.33l-1.64,2.07-2.06,1.6a9.85,9.85,0,0,1-2.73,1,13.18,13.18,0,0,1-3.52.39,12.57,12.57,0,0,1-4.67-.85,10.86,10.86,0,0,1-3.67-2.51,12.63,12.63,0,0,1-2.43-4.27,18,18,0,0,1-.84-5.93,19.35,19.35,0,0,1,.71-5.21,12.38,12.38,0,0,1,2.26-4.17,10.61,10.61,0,0,1,3.89-2.82,13,13,0,0,1,5.41-1.08,16.77,16.77,0,0,1,3.94.51,11.32,11.32,0,0,1,3.3,1.52,9,9,0,0,1,2.46,2.5,9.82,9.82,0,0,1,1.44,3.54h-2.64l-1.11-2.51-1.89-1.9-2.46-1.16a10,10,0,0,0-2.85-.43,10.48,10.48,0,0,0-4.47.89,7.58,7.58,0,0,0-3.13,2.5,11.13,11.13,0,0,0-1.8,3.85,19.6,19.6,0,0,0-.54,4.91,11.07,11.07,0,0,0,.67,4.06,10.14,10.14,0,0,0,1.85,3.37,8.9,8.9,0,0,0,3,2.28,9.22,9.22,0,0,0,4.11.84l2.19-.21,2.22-.75,2-1.38,1.57-2.1.86-2.53a23.55,23.55,0,0,0,.3-2.76Z"/><polygon class="cls-6" points="500.81 955.98 500.81 978.25 500.72 978.25 485.33 955.98 482.5 955.98 482.5 981.4 485.02 981.4 485.02 959.25 485.09 959.25 500.37 981.4 503.27 981.4 503.27 955.98 500.81 955.98"/><rect class="cls-6" x="514.53" y="955.98" width="2.49" height="25.43"/><polygon class="cls-6" points="525.97 955.98 525.97 957.99 534.37 957.99 534.37 981.4 536.87 981.4 536.87 957.99 545.27 957.99 545.27 955.98 525.97 955.98"/><rect class="cls-6" x="554.22" y="955.98" width="2.48" height="25.43"/><polygon class="cls-6" points="586.19 955.98 586.19 978.25 586.1 978.25 570.73 955.98 567.91 955.98 567.91 981.4 570.43 981.4 570.43 959.25 570.49 959.25 585.78 981.4 588.68 981.4 588.68 955.98 586.19 955.98"/><path class="cls-6" d="M610.36,970.3v-2h11.37v13.15h-2.1v-4.33L618,979.15l-2.1,1.6a9.87,9.87,0,0,1-2.7,1,13.21,13.21,0,0,1-3.55.39,12,12,0,0,1-4.61-.85,10.69,10.69,0,0,1-3.7-2.51,11.7,11.7,0,0,1-2.43-4.27,18.79,18.79,0,0,1-.84-5.93,17.55,17.55,0,0,1,.73-5.21,11.15,11.15,0,0,1,2.27-4.17,10,10,0,0,1,3.85-2.82,13.14,13.14,0,0,1,5.43-1.08,16.7,16.7,0,0,1,3.9.51,10.33,10.33,0,0,1,3.3,1.52,9.44,9.44,0,0,1,2.5,2.5,10.54,10.54,0,0,1,1.4,3.54h-2.58l-1.14-2.51-1.89-1.9-2.46-1.16a10.1,10.1,0,0,0-2.86-.43,10.68,10.68,0,0,0-4.52.89,7.91,7.91,0,0,0-3.06,2.5,10.57,10.57,0,0,0-1.77,3.85,16.78,16.78,0,0,0-.61,4.91,14,14,0,0,0,.67,4.06,10.7,10.7,0,0,0,1.85,3.37,9.21,9.21,0,0,0,3,2.28,8.92,8.92,0,0,0,4.08.84l2.21-.21,2.23-.75,2-1.38,1.59-2.1.85-2.53a21.62,21.62,0,0,0,.29-2.76Z"/><polygon class="cls-6" points="661.61 955.98 661.61 981.4 679.64 981.4 679.64 979.36 664.09 979.36 664.09 969.28 677.78 969.28 677.78 967.2 664.09 967.2 664.09 957.99 679.26 957.99 679.26 955.98 661.61 955.98"/><polygon class="cls-6" points="704.1 955.98 696.81 966.69 689.54 955.98 686.6 955.98 695.4 968.34 686.25 981.4 689.1 981.4 696.81 970.18 704.56 981.4 707.43 981.4 698.31 968.34 707.04 955.98 704.1 955.98"/><path class="cls-6" d="M734.44,963.35a7.22,7.22,0,0,0-2.88-4.59,9.59,9.59,0,0,0-5.52-1.42,8.33,8.33,0,0,0-7,3.38,10.08,10.08,0,0,0-1.66,3.59,15.58,15.58,0,0,0-.54,4.33,18.39,18.39,0,0,0,.47,4.17,9.53,9.53,0,0,0,1.54,3.63,8.43,8.43,0,0,0,2.89,2.65,10.14,10.14,0,0,0,4.53.92,9.53,9.53,0,0,0,3.06-.49,8.49,8.49,0,0,0,2.49-1.45l1.8-2.23a12,12,0,0,0,1-2.82h2.59a13.13,13.13,0,0,1-1.26,3.47,10.6,10.6,0,0,1-2.26,3,9.66,9.66,0,0,1-3.36,1.95,13.79,13.79,0,0,1-4.62.69,12.36,12.36,0,0,1-5.29-1.05,10.35,10.35,0,0,1-3.48-2.94,11.8,11.8,0,0,1-2-4.23,19.05,19.05,0,0,1-.61-5.16,18.67,18.67,0,0,1,.91-6.19,11.79,11.79,0,0,1,2.62-4.18,10.28,10.28,0,0,1,3.93-2.31,15.49,15.49,0,0,1,4.93-.75,13.43,13.43,0,0,1,3.8.55,11.39,11.39,0,0,1,3.09,1.52,8.63,8.63,0,0,1,2.17,2.56,10.2,10.2,0,0,1,1.2,3.45Z"/><polygon class="cls-6" points="746.65 955.98 746.65 981.4 764.7 981.4 764.7 979.36 749.18 979.36 749.18 969.28 762.86 969.28 762.86 967.2 749.18 967.2 749.18 957.99 764.34 957.99 764.34 955.98 746.65 955.98"/><polygon class="cls-6" points="773.6 955.98 773.6 981.4 790.38 981.4 790.38 979.36 776.15 979.36 776.15 955.98 773.6 955.98"/><polygon class="cls-6" points="798.56 955.98 798.56 981.4 815.37 981.4 815.37 979.36 801.09 979.36 801.09 955.98 798.56 955.98"/><polygon class="cls-6" points="823.52 955.98 823.52 981.4 841.54 981.4 841.54 979.36 826.08 979.36 826.08 969.28 839.71 969.28 839.71 967.2 826.08 967.2 826.08 957.99 841.24 957.99 841.24 955.98 823.52 955.98"/><polygon class="cls-6" points="868.7 955.98 868.7 978.25 868.61 978.25 853.27 955.98 850.41 955.98 850.41 981.4 852.97 981.4 852.97 959.25 868.28 981.4 871.23 981.4 871.23 955.98 868.7 955.98"/><path class="cls-6" d="M900.45,963.35a6.91,6.91,0,0,0-2.91-4.59,9.38,9.38,0,0,0-5.5-1.42,8.43,8.43,0,0,0-4.11.94,8.73,8.73,0,0,0-2.88,2.44,10.86,10.86,0,0,0-1.68,3.59,16.79,16.79,0,0,0-.54,4.33,22.53,22.53,0,0,0,.44,4.17,12.21,12.21,0,0,0,1.6,3.63,8.08,8.08,0,0,0,2.89,2.65,9.87,9.87,0,0,0,4.49.92,10,10,0,0,0,3.19-.49l2.39-1.45,1.77-2.23a10.49,10.49,0,0,0,1.09-2.82h2.64a13.89,13.89,0,0,1-1.28,3.47,10.41,10.41,0,0,1-2.26,3,10.68,10.68,0,0,1-3.36,1.95,14.19,14.19,0,0,1-4.59.69,12.23,12.23,0,0,1-5.29-1.05,10.21,10.21,0,0,1-3.57-2.94,11.18,11.18,0,0,1-2-4.23,16.08,16.08,0,0,1-.67-5.16,17.43,17.43,0,0,1,.93-6.19,12.17,12.17,0,0,1,2.59-4.18,10.08,10.08,0,0,1,4-2.31,15.16,15.16,0,0,1,4.89-.75,13.09,13.09,0,0,1,3.78.55,10.07,10.07,0,0,1,3.08,1.52,8.17,8.17,0,0,1,2.2,2.56,10.67,10.67,0,0,1,1.24,3.45Z"/><polygon class="cls-6" points="912.63 955.98 912.63 981.4 930.67 981.4 930.67 979.36 915.15 979.36 915.15 969.28 928.88 969.28 928.88 967.2 915.15 967.2 915.15 957.99 930.34 957.99 930.34 955.98 912.63 955.98"/></g></g></svg>