<?xml version="1.0"?>
<svg xmlns="http://www.w3.org/2000/svg" height="512px" viewBox="-38 -21 682 682.66568" width="512px" class=""><g><path d="m592.242188 339.84375c-6.941407 0-12.566407 5.625-12.566407 12.5625v259.390625l-168.371093-37.171875v-289.253906c26.074218-2.667969 51.113281-12.453125 72.195312-28.515625 21.816406-16.625 38.292969-39.125 47.628906-64.617188l48.546875 10.714844v48.722656c0 16.136719 25.128907 16.160157 25.128907 0v-58.8125c0-5.898437-4.097657-11.003906-9.855469-12.273437l-57.292969-12.648438c5.054688-28.699218 1.234375-58.292968-10.878906-84.625l20.820312-26.792968c6.597656-8.484376 6.648438-19.941407.132813-28.492188-6.519531-8.546875-17.574219-11.535156-27.511719-7.425781l-31.351562 12.96875c-23.570313-19.832031-53.167969-31.625-84.183594-33.355469-33.941406-1.886719-67.542969 8.433594-94.621094 29.0625-27.101562 20.660156-45.976562 50.363281-53.132812 83.640625-3.984376 18.515625-4.230469 37.507813-.890626 55.851563l-50.804687 11.21875-190.792969-42.121094c-7.6875-1.703125-15.273437 4.511718-15.273437 12.269531v434.574219c0 5.894531 4.101562 10.996094 9.855469 12.273437l193.5 42.71875c1.773437.390625 3.648437.390625 5.421874 0l190.796876-42.125 190.789062 42.125c7.636719 1.6875 15.277344-4.425781 15.277344-12.269531v-275.03125c-.003906-6.9375-5.628906-12.5625-12.566406-12.5625zm-80.210938-171.726562c-5.933594 27.347656-21.46875 51.761718-43.765625 68.746093-22.328125 17.023438-50.019531 25.542969-78.027344 23.960938-21.023437-1.179688-41.25-7.964844-58.566406-19.414063l103.417969-42.765625c1.984375-.828125 3.808594-2.199219 5.121094-3.902343l68.660156-88.371094c6.460937 19.773437 7.628906 41.125 3.160156 61.746094-5.933594 27.347656 4.46875-20.621094 0 0zm-148.847656-48.40625 5.9375 7.789062c-1.941406 3.453125-3.242188 7.277344-3.789063 11.324219-1.132812 8.398437 1.074219 16.738281 6.210938 23.480469 5.136719 6.742187 12.59375 11.078124 20.996093 12.210937 1.4375.195313 2.882813.292969 4.3125.292969 2.582032 0 5.136719-.316406 7.613282-.929688l5.929687 7.78125-140.480469 58.09375zm40.148437 24.238281c-1.144531 8.417969-14.234375 6.691406-13.09375-1.761719s14.226563-6.65625 13.09375 1.761719c-.242187 1.753906.234375-1.746094 0 0zm120.320313-97.566407-93.265625 120.042969-5.9375-7.789062c1.941406-3.449219 3.238281-7.273438 3.785156-11.320313 1.136719-8.398437-1.070313-16.738281-6.207031-23.484375-7.902344-10.363281-20.992188-14.5-32.90625-11.550781l-5.945313-7.804688zm-242.152344 71.820313c5.898438-27.421875 21.453125-51.902344 43.796875-68.933594 22.320313-17.007812 50.007813-25.519531 77.984375-23.957031 21.039062 1.171875 41.285156 7.953125 58.613281 19.414062l-103.417969 42.769532c-1.992187.820312-3.796874 2.203125-5.117187 3.902344l-68.667969 88.371093c-6.4375-19.710937-7.617187-40.988281-3.191406-61.566406 5.898438-27.421875-4.425781 20.578125 0 0zm-257.203125 47.578125 168.375 37.171875v408.84375l-168.375-37.171875zm193.5 37.171875 44.914063-9.914063c1.230468 3.304688 2.601562 6.5625 4.082031 9.773438l-20.820313 26.796875c-6.367187 8.191406-6.5625 19.652344-.460937 28.046875 6.34375 8.71875 17.859375 12 27.832031 7.875l31.359375-12.96875c22.875 19.253906 51.441406 30.894531 81.46875 33.140625v288.914063l-168.375 37.175781zm0 0" data-original="#000000" class="active-path" data-old_color="#000000" fill="#002807"/><path d="m108.480469 467.71875c-26.628907 0-48.292969 21.671875-48.292969 48.300781 0 26.632813 21.664062 48.300781 48.292969 48.300781 26.632812 0 48.300781-21.667968 48.300781-48.300781 0-26.628906-21.667969-48.300781-48.300781-48.300781zm0 71.46875c-12.773438 0-23.167969-10.390625-23.167969-23.167969 0-12.777343 10.394531-23.167969 23.167969-23.167969 12.78125 0 23.171875 10.390626 23.171875 23.167969 0 12.777344-10.390625 23.167969-23.171875 23.167969zm0 0" data-original="#000000" class="active-path" data-old_color="#000000" fill="#002807"/><path d="m592.242188 289.898438c-6.828126 0-12.566407 5.734374-12.566407 12.5625 0 6.824218 5.738281 12.5625 12.566407 12.5625 6.632812 0 12.246093-5.40625 12.539062-12.015626.3125-7.027343-5.496094-13.109374-12.539062-13.109374zm0 0" data-original="#000000" class="active-path" data-old_color="#000000" fill="#002807"/></g> </svg>
