<?xml version="1.0"?>
<svg xmlns="http://www.w3.org/2000/svg" height="512px" viewBox="0 -12 496.0001 496" width="512px" class=""><g><path d="m248 128c-22.089844 0-40-17.910156-40-40s17.910156-40 40-40 40 17.910156 40 40c-.027344 22.082031-17.917969 39.972656-40 40zm0 0" fill="#78b9eb" data-original="#78B9EB" class="active-path" style="fill:#09760F" data-old_color="#09750F"/><path d="m328 264c0-13.253906-35.816406-24-80-24s-80 10.746094-80 24 35.816406 24 80 24 80-10.746094 80-24zm0 0" fill="#78b9eb" data-original="#78B9EB" class="active-path" style="fill:#09760F" data-old_color="#09750F"/><g fill="#1a6fb0"><path d="m492 41.078125c-2.476562-1.425781-5.523438-1.425781-8 0l-109.207031 62.402344-28.882813-7.199219-3.886718 15.519531 32 8c2 .511719 4.121093.226563 5.914062-.800781l100.0625-57.207031v333.597656l-105.175781 60.074219-252.878907-63.199219c-2-.507813-4.121093-.21875-5.914062.796875l-100.03125 57.144531v-333.566406l105.175781-60.105469 28.878907 7.199219 3.890624-15.519531-32-8c-2-.503906-4.121093-.21875-5.914062.800781l-112 64c-2.503906 1.429687-4.0429688 4.101563-4.03125 6.984375v352c-.00390625 2.859375 1.515625 5.507812 3.992188 6.941406 2.476562 1.429688 5.53125 1.433594 8.007812.003906l109.207031-62.402343 252.882813 63.199219c2 .507812 4.117187.222656 5.910156-.796876l112-64c2.480469-1.433593 4.003906-4.082031 4-6.945312v-352c-.003906-2.855469-1.527344-5.492188-4-6.921875zm0 0" data-original="#000000" class="" style="fill:#002807" data-old_color="#002B03"/><path d="m248 0c-37.765625.015625-71.308594 24.128906-83.359375 59.921875-3.101563 9.035156-4.667969 18.523437-4.640625 28.078125 0 41.441406 62.71875 130.800781 78.238281 152.238281 1.84375 2.480469 3.042969 4.082031 3.363281 4.5625 1.507813 2.015625 3.878907 3.199219 6.398438 3.199219s4.890625-1.183594 6.398438-3.199219c.320312-.480469 1.523437-2.082031 3.363281-4.5625 14-19.359375 66.320312-93.839843 76.476562-138.636719 1.082031-4.457031 1.671875-9.015624 1.761719-13.601562-.03125-48.589844-39.410156-87.96875-88-88zm70.800781 97.761719c-7.441406 34.636719-48.320312 97.117187-70.800781 128.636719-24.800781-34.796876-72-107.277344-72-138.398438 0-39.765625 32.234375-72 72-72s72 32.234375 72 72c-.046875 3.289062-.449219 6.558594-1.199219 9.761719zm0 0" data-original="#000000" class="" style="fill:#002807" data-old_color="#002B03"/><path d="m248 40c-19.316406.035156-36.753906 11.585938-44.320312 29.359375-2.414063 5.917969-3.664063 12.25-3.679688 18.640625-.089844 25.78125 20.199219 47.027344 45.957031 48.125 25.757813 1.097656 47.78125-18.351562 49.882813-44.046875.082031-1.277344.160156-2.71875.160156-4.078125 0-26.507812-21.492188-48-48-48zm32 48.160156c-.042969 17.671875-14.40625 31.964844-32.078125 31.917969-17.675781-.042969-31.964844-14.40625-31.921875-32.078125-.015625-5.125 1.222656-10.179688 3.601562-14.71875 6.792969-13.085938 21.648438-19.835938 35.976563-16.34375 14.324219 3.488281 24.410156 16.316406 24.421875 31.0625zm0 0" data-original="#000000" class="" style="fill:#002807" data-old_color="#002B03"/><path d="m232 256h32v16h-32zm0 0" data-original="#000000" class="" style="fill:#002807" data-old_color="#002B03"/><path d="m272 256h16v16h-16zm0 0" data-original="#000000" class="" style="fill:#002807" data-old_color="#002B03"/><path d="m208 256h16v16h-16zm0 0" data-original="#000000" class="" style="fill:#002807" data-old_color="#002B03"/></g></g> </svg>
