<?xml version="1.0"?>
<svg xmlns="http://www.w3.org/2000/svg" height="512px" viewBox="0 -30 512 512" width="512px" class=""><g><path d="m504.503906 190.835938c4.140625 0 7.496094-3.355469 7.496094-7.496094v-123.144532c0-17.984374-14.644531-32.613281-32.640625-32.613281h-286.515625v-.097656c0-15.15625-11.296875-27.484375-25.1875-27.484375h-87.535156c-13.886719 0-25.183594 12.328125-25.183594 27.484375v.097656h-22.324219c-17.984375 0-32.613281 14.632813-32.613281 32.613281v292.859376c0 17.984374 14.628906 32.613281 32.613281 32.613281h23.40625c3.140625 11.292969 12.753907 19.53125 24.101563 19.53125h35.707031c2.226563 25.726562 23.851563 45.980469 50.128906 45.980469h202.082031c29.097657 0 52.769532-23.671876 52.769532-52.769532v-12.742187h58.550781c17.996094 0 32.640625-14.628907 32.640625-32.613281v-135.105469c0-4.140625-3.355469-7.496094-7.496094-7.496094-4.144531 0-7.5 3.355469-7.5 7.496094v135.105469c0 9.714843-7.914062 17.617187-17.644531 17.617187h-286.515625v-328.09375h286.515625c9.730469 0 17.644531 7.902344 17.644531 17.617187v123.144532c0 4.140625 3.355469 7.496094 7.5 7.496094zm-489.507812 162.21875v-292.859376c0-9.714843 7.902344-17.617187 17.617187-17.617187h22.320313v328.09375h-22.320313c-9.714843 0-17.617187-7.902344-17.617187-17.617187zm54.9375 24.632812v-350.203125c0-6.769531 4.664062-12.488281 10.1875-12.488281h87.535156c5.523438 0 10.191406 5.71875 10.191406 12.488281v350.203125c0 6.785156-4.667968 12.515625-10.191406 12.515625h-87.535156c-5.523438 0-10.1875-5.730469-10.1875-12.515625zm335.878906 20.722656c0 20.828125-16.945312 37.773438-37.773438 37.773438h-202.082031c-18 0-32.890625-13.542969-35.054687-30.984375h36.753906c11.347656 0 20.964844-8.238281 24.101562-19.527344h214.054688zm0 0" data-original="#000000" class="active-path" data-old_color="#000000" fill="#002807"/><path d="m323.875 81.132812c4.140625 0 7.5-3.359374 7.5-7.5 0-4.140624-3.359375-7.496093-7.5-7.496093h-83.253906c-8.027344 0-14.558594 6.527343-14.558594 14.554687v39.121094c0 8.023438 6.53125 14.554688 14.558594 14.554688h203.785156c8.027344 0 14.554688-6.53125 14.554688-14.554688v-39.121094c0-8.027344-6.527344-14.554687-14.554688-14.554687h-85.917969c-4.140625 0-7.5 3.355469-7.5 7.496093 0 4.140626 3.359375 7.5 7.5 7.5h85.476563v38.238282h-202.902344v-38.238282zm0 0" data-original="#000000" class="active-path" data-old_color="#000000" fill="#002807"/><path d="m282.945312 206.625h-32.941406c-7.589844 0-13.761718-6.171875-13.761718-13.761719v-26.761719c0-7.585937 6.171874-13.761718 13.761718-13.761718h32.941406c7.585938 0 13.761719 6.175781 13.761719 13.761718v26.761719c0 7.589844-6.175781 13.761719-13.761719 13.761719zm-31.707031-14.996094h30.472657v-24.292968h-30.472657zm31.707031-24.292968h.007813zm0 0" data-original="#000000" class="active-path" data-old_color="#000000" fill="#002807"/><path d="m358.289062 206.625h-32.9375c-7.589843 0-13.761718-6.171875-13.761718-13.761719v-26.761719c0-7.585937 6.171875-13.761718 13.761718-13.761718h32.9375c7.589844 0 13.761719 6.175781 13.761719 13.761718v26.761719c0 7.589844-6.171875 13.761719-13.761719 13.761719zm-31.703124-14.996094h30.46875v-24.292968h-30.46875zm31.703124-24.292968h.011719zm0 0" data-original="#000000" class="active-path" data-old_color="#000000" fill="#002807"/><path d="m433.664062 206.625h-32.941406c-7.585937 0-13.761718-6.171875-13.761718-13.761719v-26.761719c0-7.585937 6.175781-13.761718 13.761718-13.761718h32.941406c7.589844 0 13.761719 6.175781 13.761719 13.761718v26.761719c0 7.589844-6.171875 13.761719-13.761719 13.761719zm-31.707031-14.996094h30.472657v-24.292968h-30.472657zm31.707031-24.292968h.007813zm0 0" data-original="#000000" class="active-path" data-old_color="#000000" fill="#002807"/><path d="m282.945312 274.714844h-32.941406c-7.589844 0-13.761718-6.171875-13.761718-13.761719v-26.730469c0-7.589844 6.171874-13.765625 13.761718-13.765625h32.941406c7.585938 0 13.761719 6.175781 13.761719 13.765625v26.730469c0 7.589844-6.175781 13.761719-13.761719 13.761719zm-31.707031-14.996094h30.472657v-24.265625h-30.472657zm31.707031-24.265625h.007813zm0 0" data-original="#000000" class="active-path" data-old_color="#000000" fill="#002807"/><path d="m358.289062 274.714844h-32.9375c-7.589843 0-13.761718-6.171875-13.761718-13.761719v-26.730469c0-7.589844 6.171875-13.765625 13.761718-13.765625h32.9375c7.589844 0 13.761719 6.175781 13.761719 13.765625v26.730469c0 7.589844-6.171875 13.761719-13.761719 13.761719zm-31.703124-14.996094h30.46875v-24.265625h-30.46875zm31.703124-24.265625h.011719zm0 0" data-original="#000000" class="active-path" data-old_color="#000000" fill="#002807"/><path d="m433.664062 274.714844h-32.941406c-7.585937 0-13.761718-6.171875-13.761718-13.761719v-26.730469c0-7.589844 6.175781-13.765625 13.761718-13.765625h32.941406c7.589844 0 13.761719 6.175781 13.761719 13.765625v26.730469c0 7.589844-6.171875 13.761719-13.761719 13.761719zm-31.707031-14.996094h30.472657v-24.265625h-30.472657zm31.707031-24.265625h.007813zm0 0" data-original="#000000" class="active-path" data-old_color="#000000" fill="#002807"/><path d="m282.945312 342.808594h-32.941406c-7.589844 0-13.761718-6.175782-13.761718-13.765625v-26.730469c0-7.589844 6.171874-13.761719 13.761718-13.761719h32.941406c7.585938 0 13.761719 6.171875 13.761719 13.761719v26.730469c0 7.589843-6.175781 13.765625-13.761719 13.765625zm-31.707031-14.996094h30.472657v-24.265625h-30.472657zm31.707031-24.265625h.007813zm0 0" data-original="#000000" class="active-path" data-old_color="#000000" fill="#002807"/><path d="m358.289062 342.808594h-32.9375c-7.589843 0-13.761718-6.175782-13.761718-13.765625v-26.730469c0-7.589844 6.171875-13.761719 13.761718-13.761719h32.9375c7.589844 0 13.761719 6.171875 13.761719 13.761719v26.730469c0 7.589843-6.171875 13.765625-13.761719 13.765625zm-31.703124-14.996094h30.46875v-24.265625h-30.46875zm31.703124-24.265625h.011719zm0 0" data-original="#000000" class="active-path" data-old_color="#000000" fill="#002807"/><path d="m433.664062 342.808594h-32.941406c-7.585937 0-13.761718-6.175782-13.761718-13.765625v-26.730469c0-7.589844 6.175781-13.761719 13.761718-13.761719h32.941406c7.589844 0 13.761719 6.171875 13.761719 13.761719v26.730469c0 7.589843-6.171875 13.765625-13.761719 13.765625zm-31.707031-14.996094h30.472657v-24.265625h-30.472657zm31.707031-24.265625h.007813zm0 0" data-original="#000000" class="active-path" data-old_color="#000000" fill="#002807"/></g> </svg>
